<mxfile host="app.diagrams.net" modified="2022-12-07T04:58:03.864Z" agent="5.0 (Macintosh; Intel Mac OS X 10_15_7) AppleWebKit/537.36 (KHTML, like Gecko) Chrome/107.0.0.0 Safari/537.36" version="20.6.0" etag="n-cYgwl4msme763aFX7I" type="github">
  <diagram id="lyflDzo0CK7GqbliIh1c" name="第 1 页">
    <mxGraphModel dx="1017" dy="798" grid="1" gridSize="10" guides="1" tooltips="1" connect="1" arrows="1" fold="1" page="1" pageScale="1" pageWidth="827" pageHeight="1169" math="0" shadow="0">
      <root>
        <mxCell id="0" />
        <mxCell id="1" parent="0" />
        <mxCell id="3j1pDsYnujLU90QseB3I-4" value="&lt;span style=&quot;font-size: 18px;&quot;&gt;&lt;b&gt;JAVAC&lt;/b&gt;&lt;/span&gt;" style="rounded=1;whiteSpace=wrap;html=1;strokeWidth=2;fillColor=#f5f5f5;strokeColor=#666666;fontColor=#333333;" vertex="1" parent="1">
          <mxGeometry x="345" y="379" width="120" height="51" as="geometry" />
        </mxCell>
        <mxCell id="3j1pDsYnujLU90QseB3I-9" style="rounded=0;orthogonalLoop=1;jettySize=auto;html=1;entryX=0.5;entryY=0;entryDx=0;entryDy=0;fontSize=18;strokeWidth=2;dashed=1;" edge="1" parent="1" source="3j1pDsYnujLU90QseB3I-5" target="3j1pDsYnujLU90QseB3I-6">
          <mxGeometry relative="1" as="geometry" />
        </mxCell>
        <mxCell id="3j1pDsYnujLU90QseB3I-10" style="edgeStyle=none;rounded=0;orthogonalLoop=1;jettySize=auto;html=1;entryX=0.5;entryY=0;entryDx=0;entryDy=0;strokeWidth=2;fontSize=18;dashed=1;" edge="1" parent="1" source="3j1pDsYnujLU90QseB3I-5" target="3j1pDsYnujLU90QseB3I-7">
          <mxGeometry relative="1" as="geometry" />
        </mxCell>
        <mxCell id="3j1pDsYnujLU90QseB3I-11" style="edgeStyle=none;rounded=0;orthogonalLoop=1;jettySize=auto;html=1;entryX=0.5;entryY=0;entryDx=0;entryDy=0;strokeWidth=2;fontSize=18;dashed=1;" edge="1" parent="1" source="3j1pDsYnujLU90QseB3I-5" target="3j1pDsYnujLU90QseB3I-8">
          <mxGeometry relative="1" as="geometry" />
        </mxCell>
        <mxCell id="3j1pDsYnujLU90QseB3I-5" value="&lt;span style=&quot;font-size: 18px;&quot;&gt;&lt;b&gt;JVM&lt;/b&gt;&lt;/span&gt;" style="rounded=1;whiteSpace=wrap;html=1;strokeWidth=2;fillColor=#f5f5f5;fontColor=#333333;strokeColor=#666666;" vertex="1" parent="1">
          <mxGeometry x="346" y="550" width="120" height="51.86" as="geometry" />
        </mxCell>
        <mxCell id="3j1pDsYnujLU90QseB3I-6" value="&lt;span style=&quot;font-size: 18px;&quot;&gt;&lt;b&gt;WIndows&lt;/b&gt;&lt;/span&gt;" style="rounded=1;whiteSpace=wrap;html=1;strokeWidth=2;fillColor=#f5f5f5;strokeColor=#666666;fontColor=#333333;dashed=1;" vertex="1" parent="1">
          <mxGeometry x="132" y="681.86" width="120" height="48.14" as="geometry" />
        </mxCell>
        <mxCell id="3j1pDsYnujLU90QseB3I-7" value="&lt;span style=&quot;font-size: 18px;&quot;&gt;&lt;b&gt;Linux&lt;/b&gt;&lt;/span&gt;" style="rounded=1;whiteSpace=wrap;html=1;strokeWidth=2;fillColor=#f5f5f5;strokeColor=#666666;fontColor=#333333;dashed=1;" vertex="1" parent="1">
          <mxGeometry x="346" y="681.86" width="120" height="48.14" as="geometry" />
        </mxCell>
        <mxCell id="3j1pDsYnujLU90QseB3I-8" value="&lt;span style=&quot;font-size: 18px;&quot;&gt;&lt;b&gt;MacOS&lt;/b&gt;&lt;/span&gt;" style="rounded=1;whiteSpace=wrap;html=1;strokeWidth=2;fillColor=#f5f5f5;strokeColor=#666666;fontColor=#333333;dashed=1;" vertex="1" parent="1">
          <mxGeometry x="558" y="681.86" width="120" height="48.14" as="geometry" />
        </mxCell>
        <mxCell id="3j1pDsYnujLU90QseB3I-24" value="" style="shadow=0;dashed=0;html=1;strokeColor=none;fillColor=#4495D1;labelPosition=center;verticalLabelPosition=bottom;verticalAlign=top;align=center;outlineConnect=0;shape=mxgraph.veeam.data_file;strokeWidth=2;fontSize=18;" vertex="1" parent="1">
          <mxGeometry x="384" y="451.86" width="54" height="61.86" as="geometry" />
        </mxCell>
        <mxCell id="3j1pDsYnujLU90QseB3I-25" value="&lt;b&gt;.class&lt;/b&gt;" style="text;html=1;align=center;verticalAlign=middle;resizable=0;points=[];autosize=1;strokeColor=none;fillColor=none;fontSize=18;" vertex="1" parent="1">
          <mxGeometry x="370" y="501.86" width="70" height="40" as="geometry" />
        </mxCell>
      </root>
    </mxGraphModel>
  </diagram>
</mxfile>
